<?xml version="1.0" encoding="iso-8859-1"?>
<!-- Generator: Adobe Illustrator 19.0.0, SVG Export Plug-In . SVG Version: 6.00 Build 0)  -->
<svg xmlns="http://www.w3.org/2000/svg" xmlns:xlink="http://www.w3.org/1999/xlink" version="1.1" id="Capa_1" x="0px" y="0px" viewBox="0 0 512 512" style="enable-background:new 0 0 512 512;" xml:space="preserve" width="512px" height="512px">
<g>
	<g>
		<g>
			<path d="M144,176h16v24c0,4.418,3.582,8,8,8h176c4.418,0,8-3.582,8-8v-24h16c4.418,0,8-3.582,8-8v-56c0-8.837-7.163-16-16-16h-8     V80h16c4.418,0,8-3.582,8-8V16c0-8.837-7.163-16-16-16H152c-8.837,0-16,7.163-16,16v56c0,4.418,3.582,8,8,8h16v16h-8     c-8.837,0-16,7.163-16,16v56C136,172.418,139.582,176,144,176z M336,192H176v-16h160V192z M152,16h208v48H152V16z M176,80h160v16     H176V80z M152,112h208v48H152V112z" fill="#01a982"/>
			<rect x="168" y="32" width="16" height="16" fill="#01a982"/>
			<rect x="168" y="128" width="176" height="16" fill="#01a982"/>
			<rect x="200" y="32" width="16" height="16" fill="#01a982"/>
			<rect x="232" y="32" width="112" height="16" fill="#01a982"/>
			<path d="M504,384c4.418,0,8-3.582,8-8v-56c0-8.837-7.163-16-16-16H288c-8.837,0-16,7.163-16,16v56c0,4.418,3.582,8,8,8h16v16h-8     c-8.837,0-16,7.163-16,16v56c0,4.418,3.582,8,8,8h16v24c0,4.418,3.582,8,8,8h176c4.418,0,8-3.582,8-8v-24h16c4.418,0,8-3.582,8-8     v-56c0-8.837-7.163-16-16-16h-8v-16H504z M288,320h208v48H288V320z M472,496H312v-16h160V496z M496,464H288v-48h208V464z      M472,400H312v-16h160V400z" fill="#01a982"/>
			<rect x="304" y="336" width="16" height="16" fill="#01a982"/>
			<rect x="304" y="432" width="176" height="16" fill="#01a982"/>
			<rect x="336" y="336" width="16" height="16" fill="#01a982"/>
			<rect x="368" y="336" width="112" height="16" fill="#01a982"/>
			<path d="M224,304H16c-8.837,0-16,7.163-16,16v56c0,4.418,3.582,8,8,8h16v16h-8c-8.837,0-16,7.163-16,16v56c0,4.418,3.582,8,8,8     h16v24c0,4.418,3.582,8,8,8h176c4.418,0,8-3.582,8-8v-24h16c4.418,0,8-3.582,8-8v-56c0-8.837-7.163-16-16-16h-8v-16h16     c4.418,0,8-3.582,8-8v-56C240,311.163,232.837,304,224,304z M200,496H40v-16h160V496z M224,464H16v-48h208V464z M200,400H40v-16     h160V400z M224,368H16v-48h208V368z" fill="#01a982"/>
			<rect x="32" y="336" width="16" height="16" fill="#01a982"/>
			<rect x="32" y="432" width="176" height="16" fill="#01a982"/>
			<rect x="64" y="336" width="16" height="16" fill="#01a982"/>
			<rect x="96" y="336" width="112" height="16" fill="#01a982"/>
			<path d="M128,264h256v24h16v-32c0-4.418-3.582-8-8-8H264v-24h-16v24H120c-4.418,0-8,3.582-8,8v32h16V264z" fill="#01a982"/>
		</g>
	</g>
</g>
<g>
</g>
<g>
</g>
<g>
</g>
<g>
</g>
<g>
</g>
<g>
</g>
<g>
</g>
<g>
</g>
<g>
</g>
<g>
</g>
<g>
</g>
<g>
</g>
<g>
</g>
<g>
</g>
<g>
</g>
</svg>
